<?xml version="1.0" encoding="iso-8859-1"?>
<!-- Generator: Adobe Illustrator 19.0.0, SVG Export Plug-In . SVG Version: 6.00 Build 0)  -->
<svg version="1.1" id="Layer_1" xmlns="http://www.w3.org/2000/svg" xmlns:xlink="http://www.w3.org/1999/xlink" x="0px" y="0px"
	 viewBox="0 0 511.999 511.999" style="enable-background:new 0 0 511.999 511.999;" xml:space="preserve">
<path style="fill:#FFCE00;" d="M282.317,479.803c0-14.536-11.784-26.32-26.32-26.32s-26.32,11.784-26.32,26.32V270.653h52.64
	V479.803z"/>
<path style="opacity:0.2;enable-background:new    ;" d="M229.677,270.653v54.391h9.11c0-9.509,7.706-17.216,17.216-17.216
	c9.509,0,17.216,7.707,17.216,17.216h9.098v-54.391H229.677z"/>
<path style="fill:#FFCE00;" d="M169.142,299.069c0-56.242-138.786-206.985-150.718-206.985V79.482h158.62V299.07h-7.902V299.069z"/>
<path style="opacity:0.2;enable-background:new    ;" d="M18.424,79.482v12.603c2.232,0,8.909,5.281,18.285,14.231h118.766v151.284
	c8.46,16.173,13.667,30.593,13.667,41.471h7.902V79.482H18.424z"/>
<path style="fill:#FFCE00;" d="M342.858,299.069c0-56.242,138.786-206.985,150.718-206.985V79.482h-158.62V299.07h7.902V299.069z"/>
<path style="opacity:0.2;enable-background:new    ;" d="M493.576,79.482v12.603c-2.232,0-8.909,5.281-18.285,14.231H356.527
	v151.284c-8.461,16.173-13.668,30.593-13.668,41.471h-7.902V79.482H493.576z"/>
<path style="fill:#333E48;" d="M493.576,32.514H18.424c-5.79,0-10.528,4.738-10.528,10.528v38.514
	c0,5.79,4.738,10.528,10.528,10.528h150.718v387.4h69.645V297.205c0-9.509,7.706-17.216,17.216-17.216
	c9.509,0,17.216,7.707,17.216,17.216v182.279h69.645v-387.4h150.711c5.79,0,10.528-4.738,10.528-10.528V43.042
	C504.104,37.252,499.366,32.514,493.576,32.514z"/>
<path style="opacity:0.2;enable-background:new    ;" d="M193.223,32.514v280.101c0,15.673-10.072,29.03-24.081,33.959v16.428
	c22.829-5.397,39.872-25.932,39.872-50.387V32.514H193.223z"/>
<path style="opacity:0.2;enable-background:new    ;" d="M318.783,312.615V32.514h-15.792v280.101
	c0,24.454,17.044,44.99,39.873,50.387v-16.428C328.855,341.646,318.783,328.289,318.783,312.615z"/>
<rect x="248.101" y="32.514" style="fill:#FFFFFF;" width="15.792" height="162.572"/>
<path style="fill:#1E252B;" d="M493.576,24.618H18.424C8.265,24.618,0,32.884,0,43.042v38.514c0,9.683,7.513,17.627,17.013,18.352
	c7.476,4.097,41.548,37.572,78.209,83.4c41.959,52.453,66.024,94.646,66.024,115.761v180.415c0,4.361,3.535,7.896,7.896,7.896
	h69.645c4.361,0,7.896-3.535,7.896-7.896V463.91c2.806-1.644,6.018-2.53,9.314-2.53c3.302,0,6.517,0.887,9.326,2.536v15.568
	c0,4.361,3.534,7.896,7.896,7.896h69.645c4.362,0,7.896-3.535,7.896-7.896V299.069c0-21.114,24.065-63.308,66.024-115.761
	c36.661-45.83,70.735-79.305,78.21-83.4c9.497-0.729,17.006-8.672,17.006-18.352V43.042C512,32.883,503.736,24.618,493.576,24.618z
	 M161.246,251.508c-10.876-20.397-28.618-47.104-56.851-81.989c-16.789-20.744-35.649-42.076-51.745-58.525
	c-4.246-4.339-7.922-7.965-11.13-11.014h119.726V251.508z M265.324,446.888c-3.012-0.853-6.148-1.3-9.326-1.3
	c-3.174,0-6.305,0.445-9.314,1.297v-149.68c0-5.139,4.181-9.32,9.32-9.32c5.139,0,9.32,4.182,9.32,9.32v149.683H265.324z
	 M459.355,110.994c-16.095,16.449-34.956,37.78-51.744,58.525c-28.233,34.886-45.974,61.594-56.851,81.989V99.98h119.726
	C467.278,103.028,463.602,106.655,459.355,110.994z M493.582,99.98L493.582,99.98c0.197,0,0.387-0.023,0.583-0.029
	C493.985,99.968,493.794,99.98,493.582,99.98z M496.208,81.557c0,1.427-1.205,2.632-2.632,2.632H342.865
	c-4.362,0-7.896,3.535-7.896,7.896v379.504h-53.853V297.205c0-13.847-11.265-25.112-25.112-25.112
	c-13.846,0-25.112,11.265-25.112,25.112v174.383h-53.853V92.085c0-4.361-3.535-7.896-7.896-7.896H18.424
	c-1.427,0-2.632-1.205-2.632-2.632V43.042c0-1.427,1.205-2.632,2.632-2.632h475.152c1.427,0,2.632,1.205,2.632,2.632V81.557z"/>
<g>
</g>
<g>
</g>
<g>
</g>
<g>
</g>
<g>
</g>
<g>
</g>
<g>
</g>
<g>
</g>
<g>
</g>
<g>
</g>
<g>
</g>
<g>
</g>
<g>
</g>
<g>
</g>
<g>
</g>
</svg>
